<svg id="Layer_1" data-name="Layer 1" xmlns="http://www.w3.org/2000/svg" xmlns:xlink="http://www.w3.org/1999/xlink" viewBox="0 0 102 77"><defs><style>.cls-1{fill:none;}.cls-2{clip-path:url(#clip-path);}.cls-3{clip-path:url(#clip-path-2);}.cls-4{clip-path:url(#clip-path-3);}.cls-5{clip-path:url(#clip-path-4);}.cls-6{clip-path:url(#clip-path-5);}</style><clipPath id="clip-path" transform="translate(5 5)"><path class="cls-1" d="M27.27,63.18H23.73V27.82h3.54ZM29.14,24H21.86A1.78,1.78,0,0,0,20,25.91V65.09A1.78,1.78,0,0,0,21.86,67h7.28A1.78,1.78,0,0,0,31,65.09V25.91A1.78,1.78,0,0,0,29.14,24Z"/></clipPath><clipPath id="clip-path-2" transform="translate(5 5)"><path class="cls-1" d="M67.27,63.18H63.73V27.82h3.54ZM69.14,24H61.86A1.78,1.78,0,0,0,60,25.91V65.09A1.78,1.78,0,0,0,61.86,67h7.28A1.78,1.78,0,0,0,71,65.09V25.91A1.78,1.78,0,0,0,69.14,24Z"/></clipPath><clipPath id="clip-path-3" transform="translate(5 5)"><path class="cls-1" d="M88.5,28a1.35,1.35,0,1,1-2.7,0V11.76a1.35,1.35,0,1,1,2.7,0Zm-6.74,6.67a1.35,1.35,0,1,1-2.69,0V5.29a1.35,1.35,0,1,1,2.69,0Zm-68.49,0a1.35,1.35,0,1,1-2.69,0V5.29a1.35,1.35,0,1,1,2.69,0ZM6.73,28a1.32,1.32,0,0,1-1.34,1.37A1.38,1.38,0,0,1,3.85,28V11.76a1.35,1.35,0,1,1,2.69,0V28ZM87.15,6.47a2.77,2.77,0,0,0-1.35.2V5.29a5.2,5.2,0,1,0-10.39,0V18H17.12V5.29a5.2,5.2,0,1,0-10.39,0V6.67a4.06,4.06,0,0,0-1.54-.2A5.22,5.22,0,0,0,0,11.76V28a5.22,5.22,0,0,0,5.19,5.29,2.88,2.88,0,0,0,1.35-.19v1.57a5.2,5.2,0,1,0,10.39,0V22H75V34.71a5.2,5.2,0,1,0,10.39,0V33.33a3.13,3.13,0,0,0,1.34.2A5.22,5.22,0,0,0,92,28.24V12A4.77,4.77,0,0,0,87.15,6.47Z"/></clipPath><clipPath id="clip-path-4" transform="translate(5 5)"><path class="cls-1" d="M65.5,14c.9,0,1.5-.75,1.5-1.86V4.86C67,3.75,66.4,3,65.5,3S64,3.75,64,4.86v7.28C64,13.25,64.6,14,65.5,14Z"/></clipPath><clipPath id="clip-path-5" transform="translate(5 5)"><path class="cls-1" d="M25.5,14c.9,0,1.5-.75,1.5-1.86V4.86C27,3.75,26.4,3,25.5,3S24,3.75,24,4.86v7.28A1.71,1.71,0,0,0,25.5,14Z"/></clipPath></defs><title>1</title><g class="cls-2"><rect x="20" y="24" width="21" height="53"/></g><g class="cls-3"><rect x="60" y="24" width="21" height="53"/></g><g class="cls-4"><rect width="102" height="50"/></g><g class="cls-5"><rect x="64" y="3" width="13" height="21"/></g><g class="cls-6"><rect x="24" y="3" width="13" height="21"/></g></svg>