<svg id="Layer_1" data-name="Layer 1" xmlns="http://www.w3.org/2000/svg" xmlns:xlink="http://www.w3.org/1999/xlink" viewBox="0 0 98.3 105.1"><defs><style>.cls-1{fill:none;}.cls-2{clip-path:url(#clip-path);}.cls-3{clip-path:url(#clip-path-2);}.cls-4{clip-path:url(#clip-path-3);}</style><clipPath id="clip-path" transform="translate(4.17 4.5)"><path class="cls-1" d="M83,65.3,79.9,86.8a3.22,3.22,0,0,1-3.2,2.7H51.6a17.23,17.23,0,0,0,.7-2.1l3.5-26.3a18.41,18.41,0,0,0-.3-7.4H73.6a9.75,9.75,0,0,1,7.5,3.5A10,10,0,0,1,83,65.3ZM10.5,86.4,7.1,60.2V60a10.89,10.89,0,0,1,2.4-9A11.13,11.13,0,0,1,18,47H39A11.09,11.09,0,0,1,49.9,60L46.4,86.3a3.94,3.94,0,0,1-3.8,3.1H14.5A3.75,3.75,0,0,1,10.5,86.4Zm75-33.1a15.73,15.73,0,0,0-12.1-5.7h-21l-.4-.4a16.86,16.86,0,0,0-13.1-6.1h-21a17,17,0,0,0-16.8,20L4.5,87.3v.2a9.94,9.94,0,0,0,9.7,8.1H76.5a9.41,9.41,0,0,0,9.2-7.7l3.1-21.5A15.36,15.36,0,0,0,85.5,53.3Z"/></clipPath><clipPath id="clip-path-2" transform="translate(4.17 4.5)"><path class="cls-1" d="M55.4,24.5a8.4,8.4,0,0,1,16.8,0v5.1a8.4,8.4,0,0,1-16.8,0ZM63.8,44A14.47,14.47,0,0,0,78.2,29.6V24.5a14.4,14.4,0,0,0-28.8,0v5.1A14.47,14.47,0,0,0,63.8,44Z"/></clipPath><clipPath id="clip-path-3" transform="translate(4.17 4.5)"><path class="cls-1" d="M18.9,16a9.5,9.5,0,0,1,19,0v5.6a9.5,9.5,0,0,1-19,0Zm9.4,21.1A15.51,15.51,0,0,0,43.8,21.6V16a15.5,15.5,0,1,0-31,0v5.6A15.64,15.64,0,0,0,28.3,37.1Z"/></clipPath></defs><title>3</title><g class="cls-2"><rect y="40.6" width="98.3" height="64.5"/></g><g class="cls-3"><rect x="48.57" y="9.6" width="38.8" height="43.9"/></g><g class="cls-4"><rect x="11.97" width="41" height="46.6"/></g></svg>