<svg id="Layer_1" data-name="Layer 1" xmlns="http://www.w3.org/2000/svg" xmlns:xlink="http://www.w3.org/1999/xlink" viewBox="0 0 101.23 89.54"><defs><style>.cls-1{fill:none;}.cls-2{clip-path:url(#clip-path);}.cls-3{clip-path:url(#clip-path-2);}.cls-4{clip-path:url(#clip-path-3);}.cls-5{clip-path:url(#clip-path-4);}.cls-6{clip-path:url(#clip-path-5);}.cls-7{clip-path:url(#clip-path-6);}.cls-8{clip-path:url(#clip-path-7);}.cls-9{clip-path:url(#clip-path-8);}</style><clipPath id="clip-path" transform="translate(4.67 4.02)"><path class="cls-1" d="M28.86,72.72h0Zm-5.3-62.07a2.5,2.5,0,1,1,5-.73l5.27,35.79a2.38,2.38,0,0,1,0,.8L29.11,72.46c0,.13.06.25.09.35.36.08.86.17,1.5.26q2,.32,5.75.67a2.5,2.5,0,0,1-.49,5c-5.66-.56-8.35-1-9.43-1.58-1.42-.81-2.13-2.3-2.43-4.32a2.45,2.45,0,0,1,0-.81l4.67-26Z"/></clipPath><clipPath id="clip-path-2" transform="translate(4.67 4.02)"><path class="cls-1" d="M46.13,6c-5,0-11.34,2.19-18.84,6.64a2.5,2.5,0,1,1-2.55-4.31C33,3.45,40.06,1,46.13,1S59.2,3.27,67.27,7.79a2.5,2.5,0,0,1,1.26,2.5L64.05,45.2l4.45,26c.58,2.45.21,4.48-1.69,5.58s-14.59,3.78-19.53,3.78a38.29,38.29,0,0,1-12.05-2.06,2.5,2.5,0,0,1-1.71-2.19Q32.46,62.49,34.17,54C35.87,45.52,40.75,31.62,45,23A127.25,127.25,0,0,1,54.31,7.42,26.79,26.79,0,0,0,46.13,6Zm3.38,19.29C45.42,33.46,40.68,47,39.07,54.93q-1.47,7.27-.69,19.27a32.43,32.43,0,0,0,8.9,1.32,59.38,59.38,0,0,0,10.26-1.44c1.76-.36,3.47-.76,4.84-1.12.51-.13.95-.25,1.31-.36a2.58,2.58,0,0,0-.07-.34L59.06,45.67a2.29,2.29,0,0,1,0-.74l4.31-33.58q-2.19-1.17-4.23-2.08A122.84,122.84,0,0,0,49.51,25.27Z"/></clipPath><clipPath id="clip-path-3" transform="translate(4.67 4.02)"><path class="cls-1" d="M32.93,9.44a2.5,2.5,0,0,1,4.28-2.59L46.94,23a2.5,2.5,0,1,1-4.28,2.59Z"/></clipPath><clipPath id="clip-path-4" transform="translate(4.67 4.02)"><path class="cls-1" d="M11.33,50.64,24.79,30.39A2.5,2.5,0,1,1,29,33.16L14,55.66a2.5,2.5,0,0,1-3.64.58l-9-7.15A2.57,2.57,0,0,1,.5,48c-.93-2.65,1.93-8.23,9.3-19.88C16.49,17.5,21.31,11,24.49,8.27a2.5,2.5,0,1,1,3.23,3.81C25.07,14.33,20.44,20.61,14,30.74Q9.17,38.42,7,42.73A24.55,24.55,0,0,0,5.51,46Z"/></clipPath><clipPath id="clip-path-5" transform="translate(4.67 4.02)"><path class="cls-1" d="M67.11,30.22A2.5,2.5,0,1,0,63,33l15,22.5a2.49,2.49,0,0,0,3.63.58l9.06-7.15a2.48,2.48,0,0,0,.8-1.14c.93-2.65-1.92-8.24-9.3-19.89-6.68-10.56-11.51-17.1-14.68-19.8a2.5,2.5,0,0,0-3.24,3.82c2.65,2.25,7.29,8.53,13.7,18.66,3.24,5.11,5.59,9.12,7.06,12a27.51,27.51,0,0,1,1.46,3.27l-5.83,4.63Z"/></clipPath><clipPath id="clip-path-6" transform="translate(4.67 4.02)"><rect class="cls-1" x="31.04" y="43.61" width="30.96" height="5"/></clipPath><clipPath id="clip-path-7" transform="translate(4.67 4.02)"><path class="cls-1" d="M42.58,45.5a2.5,2.5,0,0,1,5,.63L44.62,69.05a2.5,2.5,0,1,1-5-.64Z"/></clipPath><clipPath id="clip-path-8" transform="translate(4.67 4.02)"><path class="cls-1" d="M42.66,46.71a2.5,2.5,0,1,1,4.85-1.19l5,20.19a2.5,2.5,0,0,1-4.86,1.19Z"/></clipPath></defs><title>4</title><g class="cls-2"><rect x="23.2" y="6.81" width="25.17" height="80.95"/></g><g class="cls-3"><rect x="23.18" width="55.24" height="89.54"/></g><g class="cls-4"><rect x="32.23" y="4.67" width="24.73" height="31.1"/></g><g class="cls-5"><rect y="6.69" width="39.04" height="59.11"/></g><g class="cls-6"><rect x="62.19" y="6.52" width="39.04" height="59.11"/></g><g class="cls-7"><rect x="30.71" y="42.63" width="40.96" height="15"/></g><g class="cls-8"><rect x="39.31" y="42.34" width="17.93" height="37.91"/></g><g class="cls-9"><rect x="42.25" y="42.64" width="19.96" height="35.19"/></g></svg>