<svg id="Layer_1" data-name="Layer 1" xmlns="http://www.w3.org/2000/svg" xmlns:xlink="http://www.w3.org/1999/xlink" viewBox="0 0 89.42 81.44"><defs><style>.cls-1,.cls-2{fill:none;}.cls-2{stroke:#000;stroke-linecap:round;stroke-linejoin:round;stroke-width:5px;}.cls-3{clip-path:url(#clip-path);}.cls-4{clip-path:url(#clip-path-2);}</style><clipPath id="clip-path" transform="translate(-0.93 -0.11)"><path class="cls-1" d="M19.3,11a3.8,3.8,0,1,0,3.8,3.8A3.8,3.8,0,0,0,19.3,11Zm0,12.6a8.8,8.8,0,1,1,8.8-8.8A8.81,8.81,0,0,1,19.3,23.6Z"/></clipPath><clipPath id="clip-path-2" transform="translate(-0.93 -0.11)"><path class="cls-1" d="M59.5,14.8A3.8,3.8,0,1,0,63.3,11,3.8,3.8,0,0,0,59.5,14.8Zm12.6,0a8.75,8.75,0,0,1-8.8,8.8,8.8,8.8,0,1,1,8.8-8.8Z"/></clipPath></defs><title>5</title><polyline class="cls-2" points="53.23 78.69 43.67 59.05 30.51 46.04 30.51 30.67 37.07 17.54 37.07 2.5 56.22 40.59 56.22 59.05 86.92 43.05 68.49 33.67 68.49 27.72 86.92 20.99"/><line class="cls-2" x1="62.34" y1="56.11" x2="74.71" y2="78.43"/><line class="cls-2" x1="75.49" y1="49.99" x2="75.49" y2="76.63"/><polyline class="cls-2" points="2.5 49.48 11.95 30.75 21.18 46.1 37.67 78.94"/><g class="cls-3"><rect x="4.57" y="0.89" width="27.6" height="27.6"/></g><g class="cls-4"><rect x="48.57" y="0.89" width="27.6" height="27.6"/></g></svg>