<svg id="Layer_1" data-name="Layer 1" xmlns="http://www.w3.org/2000/svg" xmlns:xlink="http://www.w3.org/1999/xlink" viewBox="0 0 67 90.5"><defs><style>.cls-1{fill:none;}.cls-2{clip-path:url(#clip-path);}.cls-3{clip-path:url(#clip-path-2);}.cls-4{clip-path:url(#clip-path-3);}.cls-5{clip-path:url(#clip-path-4);}.cls-6{clip-path:url(#clip-path-5);}</style><clipPath id="clip-path" transform="translate(4.5 5)"><path class="cls-1" d="M30.5,5A3.44,3.44,0,0,1,34,8.5a3.5,3.5,0,0,1-7,0A3.44,3.44,0,0,1,30.5,5Zm0,12A8.42,8.42,0,0,0,39,8.5a8.5,8.5,0,0,0-17,0A8.42,8.42,0,0,0,30.5,17Z"/></clipPath><clipPath id="clip-path-2" transform="translate(4.5 5)"><circle class="cls-1" cx="48" cy="31" r="2"/></clipPath><clipPath id="clip-path-3" transform="translate(4.5 5)"><path class="cls-1" d="M40.33,31.62A2.5,2.5,0,1,1,36.67,35L31,28.92a2.49,2.49,0,0,1-.56-1c-1-3.09-2.28-4.53-4-4.81-2.49-.39-3-.1-4.38,1.89-.68,1-3.36,8.4-7.53,21.09-.34,1.42-.09,2.19.78,2.82a8.49,8.49,0,0,0,5.14,1.43,2.53,2.53,0,0,1,1,.22l10.44,4.66a2.48,2.48,0,0,1,1.49,2.28V74.25c.13.82.22.89.58.89a1.21,1.21,0,0,0,1.19-.7V54.32a9,9,0,0,0-2.08-1q-4.13-1.56-8.27-3a2.51,2.51,0,0,1-1.61-2.94c.78-3.29,1.55-6.28,2.33-9,.86-3,1.76-5.07,2.88-6.28a2.51,2.51,0,0,1,3.78.13L37.66,39a2.73,2.73,0,0,0,1-.08c.83-.17,2.57-1.23,4.94-3.16a2.5,2.5,0,1,1,3.15,3.88c-3,2.4-5.22,3.79-7.06,4.17A6.16,6.16,0,0,1,34.53,43a2.67,2.67,0,0,1-.46-.43l-3.34-4.14q-.21.61-.42,1.35-.87,3-1.74,6.59c2.09.74,4.18,1.51,6.26,2.29,3.71,1.4,5.82,3.21,5.31,5.93V74.44A6,6,0,0,1,34,80.14c-3.07,0-5.05-2-5.55-5.32a2.34,2.34,0,0,1,0-.38V59.15l-8.5-3.79A13.11,13.11,0,0,1,12.33,53c-2.61-1.9-3.5-4.8-2.65-8.16l0-.18c4.51-13.72,7.08-20.83,8.2-22.45,2.38-3.44,4.64-4.72,9.27-4,3.7.58,6.31,3.29,7.81,7.7Z"/></clipPath><clipPath id="clip-path-4" transform="translate(4.5 5)"><path class="cls-1" d="M48,35.5A4.5,4.5,0,1,0,43.5,31,4.49,4.49,0,0,0,48,35.5Zm0,5A9.5,9.5,0,1,1,57.5,31,9.5,9.5,0,0,1,48,40.5Z"/></clipPath><clipPath id="clip-path-5" transform="translate(4.5 5)"><path class="cls-1" d="M4,52.5H23A3.5,3.5,0,0,1,26.5,56V77A3.5,3.5,0,0,1,23,80.5H4A3.5,3.5,0,0,1,.5,77V56A3.5,3.5,0,0,1,4,52.5Zm1.5,5v18h16v-18Z"/></clipPath></defs><title>6</title><g class="cls-2"><rect x="21.5" width="27" height="27"/></g><g class="cls-3"><rect x="45.5" y="29" width="14" height="14"/></g><g class="cls-4"><rect x="8.87" y="18.01" width="48.3" height="72.14"/></g><g class="cls-5"><rect x="38" y="21.5" width="29" height="29"/></g><g class="cls-6"><rect y="52.5" width="36" height="38"/></g></svg>