<svg id="Layer_1" data-name="Layer 1" xmlns="http://www.w3.org/2000/svg" xmlns:xlink="http://www.w3.org/1999/xlink" viewBox="0 0 94 94"><defs><style>.cls-1{fill:none;}.cls-2{clip-path:url(#clip-path);}.cls-3{clip-path:url(#clip-path-2);}.cls-4{clip-path:url(#clip-path-3);}</style><clipPath id="clip-path" transform="translate(5 5)"><path class="cls-1" d="M36,12a6,6,0,1,1,6,6A6,6,0,0,1,36,12Zm18,0A12,12,0,1,0,42,24,12,12,0,0,0,54,12Z"/></clipPath><clipPath id="clip-path-2" transform="translate(5 5)"><path class="cls-1" d="M84,48a3,3,0,0,1-3,3c-9.22,0-16.46-3.67-21.5-9.72C54.29,35,53.32,33,49.78,33H34.22c-3.61,0-4.73,2.3-9.72,8.28S12.18,51,3,51a3,3,0,0,1,0-6c7.36,0,13-2.83,16.89-7.56C24.66,31.73,27.34,27,34.22,27H49.78c6.82,0,9.48,4.63,14.33,10.44C68.06,42.19,73.67,45,81,45A3,3,0,0,1,84,48Z"/></clipPath><clipPath id="clip-path-3" transform="translate(5 5)"><path class="cls-1" d="M71.79,70.35l-19,5.47,8,2.3a3,3,0,0,1-1.66,5.76L42,78.94,24.79,83.88a3,3,0,1,1-1.66-5.76l8-2.3-19-5.48C2.8,67.87,4.63,54,14.27,54H30V45a3,3,0,0,1,6,0v9a6,6,0,0,1-6,6H14.27a2.32,2.32,0,0,0-.59,4.56L42,72.7l28.22-8.13A2.32,2.32,0,0,0,69.64,60H54a6,6,0,0,1-6-6V45a3,3,0,0,1,6,0v9H69.64C79.32,54,81.13,67.87,71.79,70.35Z"/></clipPath></defs><title>9</title><g class="cls-2"><rect x="30" width="34" height="34"/></g><g class="cls-3"><rect y="27" width="94" height="34"/></g><g class="cls-4"><rect x="6" y="42" width="81.92" height="52"/></g></svg>