<svg id="Layer_1" data-name="Layer 1" xmlns="http://www.w3.org/2000/svg" xmlns:xlink="http://www.w3.org/1999/xlink" viewBox="0 0 56.13 56.13"><defs><style>.cls-1{fill:none;}.cls-2{clip-path:url(#clip-path);}</style><clipPath id="clip-path" transform="translate(4.07 4.07)"><path class="cls-1" d="M46.41,7.09a2.25,2.25,0,0,0,0-3.18L44.09,1.59a2.25,2.25,0,0,0-3.18,0L25.59,16.91a2.25,2.25,0,0,1-3.18,0L7.09,1.59a2.25,2.25,0,0,0-3.18,0L1.59,3.91a2.25,2.25,0,0,0,0,3.18L16.91,22.41a2.25,2.25,0,0,1,0,3.18L1.59,40.91a2.25,2.25,0,0,0,0,3.18l2.32,2.32a2.25,2.25,0,0,0,3.18,0L22.41,31.09a2.25,2.25,0,0,1,3.18,0L40.91,46.41a2.25,2.25,0,0,0,3.18,0l2.32-2.32a2.25,2.25,0,0,0,0-3.18L31.09,25.59a2.25,2.25,0,0,1,0-3.18Z"/></clipPath></defs><title>close</title><g class="cls-2"><rect fill="#ffffff" width="56.13" height="56.13"/></g></svg>