<svg width="563px" height="577px" viewBox="0 0 563 577" version="1.1" xmlns="http://www.w3.org/2000/svg" xmlns:xlink="http://www.w3.org/1999/xlink">
    <title>e</title>
    <desc>Created with Sketch.</desc>
    <defs></defs>
    <g id="Page-1" stroke="none" stroke-width="1" fill="none" fill-rule="evenodd">
        <path d="M460.139241,385.883966 L510.048523,514.917722 C454.864,556.306114 383.855568,577 297.021097,577 C207.752015,577 135.526296,550.62544 80.3417722,497.875527 C26.7803229,445.125615 0,375.334471 0,288.5 C0,205.723215 27.1860854,137.149358 81.5590717,82.7763713 C136.743595,27.5918478 208.563552,0 297.021097,0 C369.2479,0 431.73532,24.3457481 484.485232,73.0379747 C536.423607,120.107127 562.392405,181.783022 562.392405,258.067511 C562.392405,294.58668 558.740543,325.018866 551.436709,349.364979 L188.681435,349.364979 C204.912177,399.68028 247.517236,424.837553 316.49789,424.837553 C370.05934,424.837553 417.939311,411.853154 460.139241,385.883966 Z M290.934599,152.162447 C237.37315,152.162447 201.26029,177.31972 182.594937,227.635021 L379.797468,227.635021 C379.797468,206.535056 371.682219,188.681508 355.451477,174.07384 C339.220735,159.466172 317.715324,152.162447 290.934599,152.162447 Z" id="e" fill="#EE601E"></path>
    </g>
</svg>