<svg id="Layer_1" data-name="Layer 1" xmlns="http://www.w3.org/2000/svg" xmlns:xlink="http://www.w3.org/1999/xlink" viewBox="0 0 99.01 98.83"><defs><style>.cls-1{fill:none;}.cls-2{clip-path:url(#clip-path);}.cls-3{fill:#f07c00;}</style><clipPath id="clip-path" transform="translate(5 4.08)"><path class="cls-1" d="M85.87,30.71a4.37,4.37,0,0,0-5.41,3L68.05,76.19,4,81l-.27,0a3.11,3.11,0,0,0-.44.08,2.67,2.67,0,0,0-.4.13,2.74,2.74,0,0,0-.4.15c-.13.06-.25.13-.37.2l-.36.23a3.82,3.82,0,0,0-.32.27,4.11,4.11,0,0,0-.3.29,2.78,2.78,0,0,0-.26.32c-.09.11-.17.22-.25.34s-.13.24-.19.36a3.39,3.39,0,0,0-.18.39,2.77,2.77,0,0,0-.12.41c0,.13-.07.27-.1.41s0,.3,0,.45a2.48,2.48,0,0,0,0,.27,1,1,0,0,0,0,.17s0,.1,0,.16,0,.19,0,.28,0,.28.07.41.09.28.13.42.09.25.14.37a3.84,3.84,0,0,0,.22.39,3.37,3.37,0,0,0,.19.32c.09.12.19.23.29.35s.15.18.24.27l.35.29L2,89c.13.08.28.15.42.22a1.82,1.82,0,0,0,.31.16,5.16,5.16,0,0,0,.52.16,1.38,1.38,0,0,0,.27.08,4.12,4.12,0,0,0,.86.09H76.47a4.36,4.36,0,1,0,0-8.72h-.75L88.83,36.12A4.35,4.35,0,0,0,85.87,30.71ZM14.73,63.53l14.64-1.24a3.4,3.4,0,0,0,.65-.13A4.07,4.07,0,0,0,33.37,60l6.79-12.61,10.29,7,5.66,15.69a4.07,4.07,0,1,0,7.61-2.9L57.79,50.81a3.91,3.91,0,0,0-1.19-1.65,4.18,4.18,0,0,0-1.06-1.08L44,40.21l5.18-10.5,2.13,2.67a3.12,3.12,0,0,0,.58.57,3.54,3.54,0,0,0,3.91,1l10.48-3.82a3.54,3.54,0,1,0-2.44-6.64l-8.16,3-3.46-4.36a6.45,6.45,0,0,0-9-6.06L33.6,14.35a3.16,3.16,0,0,0-.92,0,3.59,3.59,0,0,0-2.42.67l-9,6.63a3.55,3.55,0,1,0,4.23,5.69l7.86-5.81,5,.9L32.29,34.8a6.8,6.8,0,0,0-.52,1.6l-.19.23a4.07,4.07,0,0,0,1.07,5.66l.75.52L27.2,54.3,14,55.42a4.07,4.07,0,1,0,.76,8.11ZM45.31,7a7.42,7.42,0,1,1,5.89,8.69A7.44,7.44,0,0,1,45.31,7Z"/></clipPath></defs><title>1</title><g class="cls-2"><rect class="cls-3" width="99.01" height="98.83"/></g></svg>