<svg id="Layer_1" data-name="Layer 1" xmlns="http://www.w3.org/2000/svg" xmlns:xlink="http://www.w3.org/1999/xlink" viewBox="0 0 73.99 71.99"><defs><style>.cls-1{fill:none;}.cls-2{clip-path:url(#clip-path);}</style><clipPath id="clip-path" transform="translate(4.99 4.98)"><path class="cls-1" d="M24.76,50A9.85,9.85,0,1,1,25,31.81a9.71,9.71,0,0,1,5.24,5.4A9.83,9.83,0,0,1,24.76,50ZM63.85,11.73,59.7,1.28A2,2,0,0,0,58.57.16,1.92,1.92,0,0,0,57,.22L31.13,12.69l3.65,5.85-4.42,2.71L26.43,15c-7.22,3.47-12.55,6-13.1,6.24A20.91,20.91,0,0,0,6.14,26a1.72,1.72,0,0,0-.27.27,21.13,21.13,0,1,0,35.05,7.17L63.31,14A2,2,0,0,0,63.85,11.73Z"/></clipPath></defs><title>2</title><g class="cls-2"><rect fill="#f07c00" width="73.99" height="71.99"/></g></svg>