<svg id="Layer_1" data-name="Layer 1" xmlns="http://www.w3.org/2000/svg" viewBox="0 0 89.99 89.99"><title>3</title><path fill="#f07c00" d="M45,24.17A20.83,20.83,0,1,0,65.83,45,20.85,20.85,0,0,0,45,24.17Z" transform="translate(0 0)"/><path fill="#f07c00" d="M45,17.73a5.45,5.45,0,0,0,5.45-5.45V5.46a5.46,5.46,0,1,0-10.91,0v6.82A5.46,5.46,0,0,0,45,17.73Z" transform="translate(0 0)"/><path fill="#f07c00" d="M45,72.27a5.46,5.46,0,0,0-5.46,5.45v6.82a5.46,5.46,0,1,0,10.91,0V77.72A5.45,5.45,0,0,0,45,72.27Z" transform="translate(0 0)"/><path fill="#f07c00" d="M5.46,50.46h6.82a5.46,5.46,0,0,0,0-10.91H5.46a5.46,5.46,0,1,0,0,10.91Z" transform="translate(0 0)"/><path fill="#f07c00" d="M84.54,39.55H77.72a5.46,5.46,0,0,0,0,10.91h6.82a5.46,5.46,0,1,0,0-10.91Z" transform="translate(0 0)"/><path fill="#f07c00" d="M18,25.72A5.46,5.46,0,0,0,25.72,18l-4.83-4.82a5.46,5.46,0,0,0-7.71,7.72Z" transform="translate(0 0)"/><path fill="#f07c00" d="M72,64.28A5.46,5.46,0,0,0,64.28,72l4.82,4.83a5.46,5.46,0,0,0,7.72-7.71Z" transform="translate(0 0)"/><path fill="#f07c00" d="M25.72,64.29a5.44,5.44,0,0,0-7.71,0L13.18,69.1a5.46,5.46,0,0,0,7.71,7.72L25.72,72A5.45,5.45,0,0,0,25.72,64.29Z" transform="translate(0 0)"/><path fill="#f07c00" d="M64.29,25.72a5.43,5.43,0,0,0,7.71,0l4.82-4.82a5.46,5.46,0,0,0-7.72-7.71L64.28,18A5.44,5.44,0,0,0,64.29,25.72Z" transform="translate(0 0)"/></svg>