<svg id="Layer_1" data-name="Layer 1" xmlns="http://www.w3.org/2000/svg" xmlns:xlink="http://www.w3.org/1999/xlink" viewBox="0 0 94.41 110"><defs><style>.cls-1{fill:none;}.cls-2{clip-path:url(#clip-path);}</style><clipPath id="clip-path" transform="translate(4.2 4.21)"><path class="cls-1" d="M33.37,55.59A3.41,3.41,0,0,1,30,58.33a2.93,2.93,0,0,1-.67-.07,3.4,3.4,0,0,1-2.69-4,3.46,3.46,0,0,1,4-2.71,3.38,3.38,0,0,1,2.69,4Zm-2.1,13.55a3.42,3.42,0,0,1-3.34,2.74,3.05,3.05,0,0,1-.67-.07,3.43,3.43,0,1,1,4-2.74ZM29.21,82.36a3.41,3.41,0,0,1-3.38,3.07,2,2,0,0,1-.35,0,3.43,3.43,0,1,1,3.74-3.12ZM27.05,96.23A3.41,3.41,0,0,1,23.72,99a2.93,2.93,0,0,1-.67-.07,3.4,3.4,0,0,1-2.69-4,3.45,3.45,0,0,1,4-2.71,3.38,3.38,0,0,1,2.69,4Zm-5.55-40a3.43,3.43,0,0,1-3.17,2.14,3.33,3.33,0,0,1-1.26-.25,3.41,3.41,0,0,1-1.9-4.43,3.45,3.45,0,0,1,4.44-1.93,3.36,3.36,0,0,1,1.91,4.4ZM16.89,68.78a3.46,3.46,0,1,1,0-.07ZM12.08,81.93a3.4,3.4,0,0,1-3.16,2.15,3.24,3.24,0,0,1-1.26-.24,3.42,3.42,0,0,1,2.54-6.36,3.37,3.37,0,0,1,1.91,4.39ZM7.38,94.81A3.42,3.42,0,0,1,4.21,97,3.29,3.29,0,0,1,3,96.71a3.42,3.42,0,0,1,2.54-6.36,3.38,3.38,0,0,1,1.91,4.4ZM56.65,58.26a3.08,3.08,0,0,1-.68.07,3.43,3.43,0,1,1,3.34-4.14l0,.06A3.4,3.4,0,0,1,56.65,58.26Zm2.11,13.55a3.14,3.14,0,0,1-.68.07,3.43,3.43,0,1,1,3.34-4.14v.06A3.4,3.4,0,0,1,58.76,71.81Zm1.77,13.6a1.94,1.94,0,0,1-.34,0,3.43,3.43,0,0,1-.34-6.84,3.36,3.36,0,0,1,3.73,3v.06A3.41,3.41,0,0,1,60.53,85.41ZM63,98.9a3.05,3.05,0,0,1-.67.07,3.43,3.43,0,1,1,3.34-4.15v.07A3.4,3.4,0,0,1,63,98.9Zm6-40.82a3.29,3.29,0,0,1-1.26.25,3.43,3.43,0,0,1-1.28-6.61,3.37,3.37,0,0,1,4.42,1.87l0,.06A3.41,3.41,0,0,1,68.94,58.08Zm4.42,13a3.33,3.33,0,0,1-1,.15,3.43,3.43,0,0,1-1-6.71,3.38,3.38,0,0,1,4.24,2.25l0,.07A3.4,3.4,0,0,1,73.36,71.06Zm5,12.78a3.53,3.53,0,0,1-1.27.24,3.43,3.43,0,0,1-1.28-6.6,3.35,3.35,0,0,1,4.42,1.86l0,.07A3.41,3.41,0,0,1,78.36,83.84Zm4.7,12.87A3.29,3.29,0,0,1,81.8,97a3.43,3.43,0,0,1-1.27-6.61,3.34,3.34,0,0,1,4.41,1.87l0,.06A3.4,3.4,0,0,1,83.06,96.71Zm-36.64.67A3.42,3.42,0,1,1,43,94a3.41,3.41,0,0,1,3.41,3.43Zm0-28.31A3.42,3.42,0,1,1,43,65.63,3.37,3.37,0,0,1,46.42,69Zm0,14.17a3.42,3.42,0,1,1,0-.07Zm0-28.36A3.42,3.42,0,1,1,43,51.46a3.42,3.42,0,0,1,3.41,3.42Zm30-8.16H9.61A20.47,20.47,0,0,1,30.08,26.25h5.73V.79H50.2V26.25h5.73A20.47,20.47,0,0,1,76.4,46.72Z"/></clipPath></defs><title>4</title><g class="cls-2"><rect fill="#f07c00" width="94.41" height="110"/></g></svg>