<svg id="Layer_1" data-name="Layer 1" xmlns="http://www.w3.org/2000/svg" viewBox="0 0 20 20"><title>5</title><path fill="#f07c00" d="M16,18a2,2,0,0,1-2-2H12a2,2,0,0,1-4,0H6a2,2,0,0,1-4,0H0a4,4,0,0,0,4,4,3.75,3.75,0,0,0,3-1.4A4.07,4.07,0,0,0,10,20a3.75,3.75,0,0,0,3-1.4A4.07,4.07,0,0,0,16,20a4,4,0,0,0,4-4H18A2,2,0,0,1,16,18Z"/><path fill="#f07c00" d="M4,15a3.75,3.75,0,0,0,3-1.4A4.07,4.07,0,0,0,10,15a3.75,3.75,0,0,0,3-1.4A4.07,4.07,0,0,0,16,15a4,4,0,0,0,4-4H18a2,2,0,0,1-4,0H12a2,2,0,0,1-4,0H6a2,2,0,0,1-4,0H0A4,4,0,0,0,4,15Z"/><path fill="#f07c00" d="M10,9a3,3,0,0,0,3-3c0-1.7-3-6-3-6S7,4.3,7,6A3,3,0,0,0,10,9Z"/></svg>