<svg width="510px" height="580px" viewBox="0 0 510 580" version="1.1" xmlns="http://www.w3.org/2000/svg" xmlns:xlink="http://www.w3.org/1999/xlink">
    <title>Path</title>
    <desc>Created with Sketch.</desc>
    <defs></defs>
    <g id="Page-1" stroke="none" stroke-width="1" fill="none" fill-rule="evenodd">
        <path d="M389.6,370.4 L270.4,370.4 L270.4,250.4 L509.6,250.4 L509.6,500 C485.59988,524.00012 453.6002,543.199928 413.6,557.6 C374.666472,572.000072 336.800184,579.2 300,579.2 C206.132864,579.2 132.5336,553.066928 79.2,500.8 C26.399736,448.533072 0,378.133776 0,289.6 C0,206.93292 25.866408,138.133608 77.6,83.2 C129.866928,27.733056 198.66624,0 284,0 C357.600368,0 418.666424,19.466472 467.2,58.4 L413.6,161.6 C402.399944,149.866608 386.000108,140.00004 364.4,132 C342.799892,123.99996 321.066776,120 299.2,120 C249.599752,120 210.000148,134.66652 180.4,164 C150.799852,193.33348 136,235.199728 136,289.6 C136,341.333592 151.066516,382.53318 181.2,413.2 C211.333484,443.86682 251.466416,459.2 301.6,459.2 C316.533408,459.2 333.33324,456.266696 352,450.4 C369.600088,444.533304 382.133296,438.133368 389.6,431.2 L389.6,370.4 Z" id="Path" fill="#FDA729"></path>
    </g>
</svg>