<svg xmlns="http://www.w3.org/2000/svg" width="1440" height="1587" viewBox="0 0 1440 1587">
    <defs>
        <linearGradient id="a" x1="82.422%" x2="14.078%" y1="80.178%" y2="11.255%">
            <stop offset="0%" stop-color="#09E" stop-opacity="0"/>
            <stop offset="51.073%" stop-color="#09E"/>
            <stop offset="100%" stop-color="#09E" stop-opacity="0"/>
        </linearGradient>
    </defs>
    <g fill="none" fill-rule="evenodd" stroke-linecap="square" opacity=".4">
        <g stroke="#9B9B9B" stroke-width=".2">
            <path d="M-470.674 443.502l1482.053 755.144M-480.97 463.707l1482.054 755.144M-491.264 483.912L990.79 1239.056M-666.276 827.392l1482.054 755.144M-501.559 504.117L980.495 1259.26M-511.854 524.321L970.2 1279.465M-522.148 544.526L959.905 1299.67M-532.443 564.73L949.61 1319.876M-542.738 584.935L939.315 1340.08M-553.033 605.14l1482.054 755.144M-563.328 625.345l1482.054 755.144M-573.623 645.55l1482.054 755.144M-583.917 665.754l1482.053 755.144M-594.212 685.959L887.84 1441.103M-604.507 706.164l1482.054 755.144M-614.802 726.368l1482.054 755.144M-625.097 746.573l1482.054 755.144M-635.391 766.778l1482.053 755.144M-645.686 786.983l1482.053 755.144M-655.981 807.187l1482.054 755.144"/>
            <g>
                <path d="M-248.474 72.957l1549.84 789.683M-258.769 93.162l1549.84 789.682M-269.063 113.366l1549.84 789.683M-279.358 133.571l1549.84 789.683M-289.653 153.776l1549.84 789.682M-299.948 173.98l1549.84 789.683M-310.243 194.185l1549.84 789.683M-320.538 214.39l1549.84 789.683M-330.832 234.595l1549.84 789.682M-341.127 254.8l1549.84 789.682M-351.422 275.004l1549.84 789.683M-361.717 295.209l1549.84 789.682M-372.012 315.413l1549.84 789.683M-382.306 335.618l1549.84 789.683M-392.601 355.823l1549.84 789.683M-402.896 376.028l1549.84 789.682M-413.19 396.232l1549.839 789.683M-423.486 416.437l1549.84 789.683M-433.78 436.642l1549.84 789.682"/>
            </g>
            <g>
                <path d="M130.438-191.978L1301.44 404.678M120.143-171.773l1171.003 596.655M109.848-151.569L1280.85 445.087M99.553-131.364l1171.003 596.656M89.258-111.16l1171.003 596.657M78.963-90.955l1171.004 596.656M68.669-70.75l1171.003 596.656M58.374-50.545L1229.377 546.11M48.079-30.34l1171.003 596.655M37.784-10.136L1208.787 586.52M27.49 10.069l1171.002 596.656M17.195 30.274L1188.198 626.93M6.9 50.478l1171.003 596.656M-3.395 70.683L1167.608 667.34M-13.69 90.888l1171.003 596.656M-23.985 111.093l1171.003 596.655M-34.28 131.297l1171.004 596.656M-44.574 151.502l1171.003 596.656"/>
            </g>
            <g>
                <path d="M130.438-624.978L1301.44-28.322M120.143-604.773L1291.146-8.118M109.848-584.569L1280.85 12.087M99.553-564.364L1270.556 32.292M89.258-544.16L1260.261 52.498M78.963-523.955L1249.967 72.701M68.669-503.75L1239.672 92.906M58.374-483.545L1229.377 113.11M48.079-463.34l1171.003 596.655M37.784-443.136L1208.787 153.52M27.49-422.931l1171.002 596.656M17.195-402.726L1188.198 193.93M6.9-382.522l1171.003 596.656M-3.395-362.317L1167.608 234.34M-13.69-342.112l1171.003 596.656M-23.985-321.907l1171.003 596.655M-34.28-301.703l1171.004 596.656"/>
            </g>
        </g>
        <g stroke="#9B9B9B" stroke-width=".2">
            <path d="M1363.532 494.396L-107.372 1243.86M1373.812 514.573L-97.091 1264.035M1384.092 534.749L-86.81 1284.212M1394.373 554.925L-76.531 1304.388M1404.653 575.102L-66.25 1324.564M1414.933 595.278L-55.97 1344.741M1425.214 615.455L-45.69 1364.917M1435.494 635.631L-35.409 1385.094M1445.775 655.807L-25.13 1405.27M1456.055 675.984L-14.848 1425.446M1466.335 696.16L-4.568 1445.623M1476.616 716.337L5.713 1465.799M1486.896 736.513L15.993 1485.976M1497.177 756.69L26.273 1506.151M1507.457 776.866L36.554 1526.328M1517.737 797.042L46.834 1546.505M1528.018 817.219L57.114 1566.68M1538.298 837.395L67.395 1586.858"/>
            <g>
                <path d="M1079.728 206.467l-1623.746 827.34M1090.008 226.643l-1623.746 827.34M1100.289 246.82l-1623.747 827.34M1110.57 266.996l-1623.747 827.34M1120.85 287.172l-1623.747 827.34M1131.13 307.349l-1623.747 827.34M1141.41 327.525l-1623.746 827.34M1151.69 347.702l-1623.746 827.34M1161.971 367.878l-1623.746 827.34M1172.251 388.054l-1623.746 827.34M1182.532 408.23l-1623.747 827.341M1192.812 428.407l-1623.746 827.34M1203.093 448.584l-1623.747 827.34M1213.373 468.76L-410.373 1296.1M1223.653 488.936l-1623.746 827.34M1233.934 509.113l-1623.747 827.34M1244.214 529.29l-1623.746 827.34"/>
            </g>
            <g>
                <path d="M1079.728-200.533l-1623.746 827.34M1090.008-180.357l-1623.746 827.34M1100.289-160.18L-523.458 667.16M1110.57-140.004l-1623.747 827.34M1120.85-119.828l-1623.747 827.34M1131.13-99.651l-1623.747 827.34M1141.41-79.475l-1623.746 827.34M1151.69-59.298l-1623.746 827.34M1161.971-39.122l-1623.746 827.34M1172.251-18.946l-1623.746 827.34M1182.532 1.23L-441.215 828.572M1192.812 21.407l-1623.746 827.34M1203.093 41.584l-1623.747 827.34M1213.373 61.76L-410.373 889.1M1223.653 81.936l-1623.746 827.34M1233.934 102.113l-1623.747 827.34"/>
            </g>
            <g>
                <path d="M1079.728-581.533l-1623.746 827.34M1090.008-561.357l-1623.746 827.34M1100.289-541.18L-523.458 286.16M1110.57-521.004l-1623.747 827.34M1120.85-500.828l-1623.747 827.34M1131.13-480.651l-1623.747 827.34M1141.41-460.475l-1623.746 827.34M1151.69-440.298l-1623.746 827.34M1161.971-420.122l-1623.746 827.34M1172.251-399.946l-1623.746 827.34M1182.532-379.77L-441.215 447.572M1192.812-359.593l-1623.746 827.34M1203.093-339.416l-1623.747 827.34M1213.373-319.24L-410.373 508.1M1223.653-299.064l-1623.746 827.34"/>
            </g>
        </g>
        <g stroke="url(#a)" stroke-width=".6" transform="translate(-711 -218)">
            <path d="M370.793 168.426l1549.84 789.683M602.793 108.426l1549.84 789.683M64 266l1549.84 789.683M1804.138 87.517L180.39 914.857M1624.138.517L.39 827.857M2384.138 172.517L760.39 999.857M2384.138 376.517L760.39 1203.857"/>
        </g>
    </g>
</svg>
