<svg width="596px" height="580px" viewBox="0 0 596 580" version="1.1" xmlns="http://www.w3.org/2000/svg" xmlns:xlink="http://www.w3.org/1999/xlink">
    <title>O</title>
    <desc>Created with Sketch.</desc>
    <defs></defs>
    <g id="Page-1" stroke="none" stroke-width="1" fill="none" fill-rule="evenodd">
        <path d="M0,290 C0,207.33292 27.466392,138.533608 82.4,83.6 C137.866944,28.133056 209.59956,0.4 297.6,0.4 C385.067104,0.4 456.266392,26.799736 511.2,79.6 C567.20028,132.400264 595.2,202.532896 595.2,290 C595.2,374.267088 566.933616,443.599728 510.4,498 C454.39972,552.400272 383.467096,579.6 297.6,579.6 C210.666232,579.6 139.20028,553.200264 83.2,500.4 C27.733056,447.599736 0,377.467104 0,290 Z M136,290 C136,337.466904 151.733176,377.733168 183.2,410.8 C214.133488,443.333496 252.26644,459.6 297.6,459.6 C348.800256,459.6 388.533192,443.866824 416.8,412.4 C445.066808,379.866504 459.2,339.066912 459.2,290 C459.2,239.33308 443.733488,198.533488 412.8,167.6 C381.333176,136.133176 342.93356,120.4 297.6,120.4 C250.666432,120.4 212.000152,136.133176 181.6,167.6 C151.199848,199.066824 136,239.866416 136,290 Z" id="O" fill="#FFA800"></path>
    </g>
</svg>