<svg width="467px" height="562px" viewBox="0 0 467 562" version="1.1" xmlns="http://www.w3.org/2000/svg" xmlns:xlink="http://www.w3.org/1999/xlink">
    <title>R</title>
    <desc>Created with Sketch.</desc>
    <defs></defs>
    <g id="Page-1" stroke="none" stroke-width="1" fill="none" fill-rule="evenodd">
        <path d="M128,366 L128,562 L0,562 L0,2 C30.400152,2 63.999816,1.733336 100.8,1.2 C137.600184,0.666664 167.466552,0.4 190.4,0.4 C328.534024,0.4 397.6,60.132736 397.6,179.6 C397.6,256.400384 366.133648,310.266512 303.2,341.2 L466.4,562 L311.2,562 L175.2,366 L128,366 Z M184,120.4 C183.466664,120.4 181.066688,120.533332 176.8,120.8 C172.533312,121.066668 165.866712,121.333332 156.8,121.6 C147.733288,121.866668 138.133384,122 128,122 L128,246 L174.4,246 C232.533624,246 261.6,224.400216 261.6,181.2 C261.6,140.666464 235.733592,120.4 184,120.4 Z" id="R" fill="#EE601E"></path>
    </g>
</svg>